<svg xmlns="http://www.w3.org/2000/svg" viewBox="0 0 720 540" fill="none"><defs><linearGradient id="cabinet" x1="165" y1="65" x2="560" y2="478" gradientUnits="userSpaceOnUse"><stop stop-color="#f8fafc"/><stop offset="1" stop-color="#bac5d0"/></linearGradient><linearGradient id="door" x1="188" y1="82" x2="445" y2="466" gradientUnits="userSpaceOnUse"><stop stop-color="#e7edf2"/><stop offset="1" stop-color="#aab7c3"/></linearGradient></defs><ellipse cx="360" cy="464" rx="220" ry="27" fill="#000" opacity=".24"/><path d="M161 63 519 42l38 35v385l-370 23-26-28V63Z" fill="url(#cabinet)" stroke="#f8fafc" stroke-width="5"/><path d="m187 81 258-14v367l-258 13V81Z" fill="url(#door)" stroke="#8493a1" stroke-width="3"/><path d="m445 67 87-5v367l-87 5V67Z" fill="#c9d2da" stroke="#8b99a5" stroke-width="3"/><path d="m221 105 191-10v110l-191 10V105Z" fill="#102337" stroke="#718293" stroke-width="5"/><rect x="237" y="120" width="160" height="72" rx="3" fill="#183c55"/><path d="M250 172h22v-16h20v16h22v-31h22v31h22v-43h22v43h17" stroke="#45c7dc" stroke-width="4"/><circle cx="373" cy="140" r="8" fill="#7bf0aa"/><path d="m221 238 191-9v175l-191 10V238Z" fill="#273746" stroke="#778795" stroke-width="5"/><rect x="238" y="254" width="45" height="44" rx="3" fill="#152230" stroke="#627587" stroke-width="3"/><rect x="293" y="251" width="45" height="44" rx="3" fill="#152230" stroke="#627587" stroke-width="3"/><rect x="348" y="248" width="45" height="44" rx="3" fill="#152230" stroke="#627587" stroke-width="3"/><path d="M250 266h20m35 0h20m35 0h20" stroke="#4fd1c5" stroke-width="5"/><circle cx="261" cy="326" r="11" fill="#1685c1"/><circle cx="316" cy="326" r="11" fill="#f7c948"/><circle cx="371" cy="326" r="11" fill="#db5965"/><path d="M248 363h138m-138 15h100m-100 15h120" stroke="#93a7b7" stroke-width="4"/><rect x="476" y="101" width="31" height="41" rx="5" fill="#394b5a"/><circle cx="491" cy="111" r="5" fill="#63d471"/><circle cx="491" cy="130" r="5" fill="#e0a33c"/><path d="M466 165h50m-50 13h50m-50 13h50m-50 13h50m-50 13h50" stroke="#8796a2" stroke-width="5"/><rect x="474" y="241" width="36" height="63" rx="4" fill="#253747"/><circle cx="492" cy="254" r="5" fill="#38bdf8"/><path d="M479 271h26m-26 9h26m-26 9h18" stroke="#94a3b8" stroke-width="3"/><path d="M469 337h44v13h-44zm-2 26h48v12h-48zm0 25h48v12h-48z" fill="#526575"/><path d="M172 89h8v20h-8zm0 337h8v20h-8zm158 44v29m-88 0h180" stroke="#8997a3" stroke-width="8" stroke-linecap="round"/><path d="M118 414h30m420-6h32" stroke="#29b6e5" stroke-width="6" stroke-linecap="round"/></svg>
